# Aspose.3D Wavefront OBJ Exporter
# Copyright 2004-2024 Aspose Pty Ltd.
# File created: 11/28/2024 17:33:54

mtllib material.lib
g Cube

#
# object Cube
#

v -45.217194 -129.2569 81.86302
v -81.863 -129.25691 45.217213
v -81.863 289.28842 45.217144
v -45.217194 289.28845 81.86295
v -81.863 -129.25693 -45.21717
v -45.217194 -129.25693 -81.862976
v -45.217194 289.28842 -81.863045
v -81.863 289.28842 -45.21724
v 81.863 -129.25691 45.217213
v 45.217194 -129.2569 81.86302
v 45.217194 289.28845 81.86295
v 81.863 289.28842 45.217144
v 45.217194 -129.25693 -81.862976
v 81.863 -129.25693 -45.21717
v 81.863 289.28842 -45.21724
v 45.217194 289.28842 -81.863045
v -30.607487 380.51984 55.41294
v -55.413002 380.51984 30.607424
v -55.413002 380.5198 -30.607548
v -30.607487 380.5198 -55.413063
v 30.607487 380.5198 -55.413063
v 55.413002 380.5198 -30.607548
v 55.413002 380.51984 30.607424
v 30.607487 380.51984 55.41294
v -18.698017 389.661 33.851566
v -33.85163 389.661 18.697954
v -33.85163 389.661 -18.69808
v -18.698017 389.661 -33.851692
v 18.698017 389.661 -33.851692
v 33.85163 389.661 -18.69808
v 33.85163 389.661 18.697954
v 18.698017 389.661 33.851566
v -18.698017 1538.2168 33.85138
v -33.85163 1538.2168 18.697767
v -33.85163 1538.2168 -18.698267
v -18.698017 1538.2168 -33.85188
v 18.698017 1538.2168 -33.85188
v 33.85163 1538.2168 -18.698267
v 33.85163 1538.2168 18.697767
v 18.698017 1538.2168 33.85138
v 12.022453 1623.048 33.851364
v -1.5327752 1629.822 18.697752
v -1.5327752 1629.822 -18.698282
v 12.022453 1623.048 -33.851894
v 45.474007 1606.3308 -33.85189
v 59.029232 1599.5569 -18.698278
v 59.029232 1599.5569 18.697756
v 45.474007 1606.3309 33.851368
v 63.48218 1675.5452 33.851357
v 59.144 1690.0645 18.697742
v 59.144 1690.0645 -18.698292
v 63.48218 1675.5452 -33.851902
v 74.18764 1639.714 -33.8519
v 78.52582 1625.1947 -18.698282
v 78.52582 1625.1947 18.697752
v 74.18764 1639.7141 33.851364
v 191.62123 1678.278 33.85135
v 191.18874 1693.4254 18.697733
v 191.18874 1693.4254 -18.698301
v 191.62123 1678.278 -33.851913
v 192.68813 1640.897 -33.851906
v 193.12064 1625.7496 -18.698292
v 193.12064 1625.7496 18.697744
v 192.68813 1640.897 33.851353
v 208.30833 1681.6843 60.18842
v 207.87582 1699.5922 33.245068
v 207.87582 1699.5922 -33.245636
v 208.30833 1681.6843 -60.18898
v 209.37524 1637.4906 -60.188972
v 209.80772 1619.5828 -44.460518
v 209.80772 1619.5828 44.45997
v 209.37524 1637.4907 60.188427
v 388.1204 1680.9481 60.188423
v 387.6879 1698.856 33.245068
v 387.6879 1698.856 -33.245636
v 388.1204 1680.948 -60.188972
v 389.1873 1636.7544 -60.188965
v 389.6198 1618.8466 -44.460514
v 389.6198 1618.8466 44.45998
v 389.1873 1636.7544 60.18843
v 407.39847 1680.0171 38.34743
v 406.96597 1696.7933 21.181158
v 406.96597 1696.7933 -21.181707
v 407.39847 1680.0171 -38.347973
v 408.46533 1638.6162 -38.34797
v 408.8979 1621.8398 -21.181696
v 408.8979 1621.84 21.18117
v 408.46533 1638.6162 38.34744
# 88 vertices

vn 0 1.6292068E-07 1
vn 0 1.6292068E-07 1
vn 0 1.6292068E-07 1
vn 0 1.6292068E-07 1
vn 1 0 0
vn 1 0 0
vn 1 0 0
vn 1 0 0
vn 0 0.27845556 0.96044904
vn 0 0.27845556 0.96044904
vn 0 0.27845556 0.96044904
vn 0 0.27845556 0.96044904
vn -1 0 0
vn -1 0 0
vn -1 0 0
vn -1 0 0
vn 0 -1.6292068E-07 -1
vn 0 -1.6292068E-07 -1
vn 0 -1.6292068E-07 -1
vn 0 -1.6292068E-07 -1
vn -0.70710677 1.15202326E-07 0.7071068
vn -0.70710677 1.15202326E-07 0.7071068
vn -0.70710677 1.15202326E-07 0.7071068
vn -0.70710677 1.15202326E-07 0.7071068
vn -0.70710677 -1.15202326E-07 -0.7071068
vn -0.70710677 -1.15202326E-07 -0.7071068
vn -0.70710677 -1.15202326E-07 -0.7071068
vn -0.70710677 -1.15202326E-07 -0.7071068
vn 0.70710677 -1.15202326E-07 -0.7071068
vn 0.70710677 -1.15202326E-07 -0.7071068
vn 0.70710677 -1.15202326E-07 -0.7071068
vn 0.70710677 -1.15202326E-07 -0.7071068
vn 0.70710677 1.15202326E-07 0.7071068
vn 0.70710677 1.15202326E-07 0.7071068
vn 0.70710677 1.15202326E-07 0.7071068
vn 0.70710677 1.15202326E-07 0.7071068
vn 0 -1 1.6292068E-07
vn 0 -1 1.6292068E-07
vn 0 -1 1.6292068E-07
vn 0 -1 1.6292068E-07
vn 0 -1 1.6292068E-07
vn 0 -1 1.6292068E-07
vn 0 -1 1.6292068E-07
vn 0 -1 1.6292068E-07
vn 0 0.9206748 -0.39033037
vn 0 0.9206748 -0.39033037
vn 0 0.9206748 -0.39033037
vn 0 0.9206748 -0.39033037
vn 0.6738087 0.30325496 -0.67380875
vn 0.6738087 0.30325496 -0.67380875
vn 0.6738087 0.30325496 -0.67380875
vn 0.6738087 0.30325496 -0.67380875
vn -0.6738088 0.30325487 -0.6738087
vn -0.6738088 0.30325487 -0.6738087
vn -0.6738088 0.30325487 -0.6738087
vn -0.6738088 0.30325487 -0.6738087
vn -0.6738087 0.3032552 0.67380863
vn -0.6738087 0.3032552 0.67380863
vn -0.6738087 0.3032552 0.67380863
vn -0.6738087 0.3032552 0.67380863
vn 0.9604491 0.27845547 -4.5366154E-08
vn 0.9604491 0.27845547 -4.5366154E-08
vn 0.9604491 0.27845547 -4.5366154E-08
vn 0.9604491 0.27845547 -4.5366154E-08
vn -0.9604491 0.27845547 -4.5366154E-08
vn -0.9604491 0.27845547 -4.5366154E-08
vn -0.9604491 0.27845547 -4.5366154E-08
vn -0.9604491 0.27845547 -4.5366154E-08
vn 0 0.27845526 -0.96044916
vn 0 0.27845526 -0.96044916
vn 0 0.27845526 -0.96044916
vn 0 0.27845526 -0.96044916
vn 0.6738088 0.3032551 0.6738086
vn 0.6738088 0.3032551 0.6738086
vn 0.6738088 0.3032551 0.6738086
vn 0.6738088 0.3032551 0.6738086
vn 1 0 0
vn 1 0 0
vn 1 0 0
vn 1 0 0
vn 0 0.9206749 0.39033008
vn 0 0.9206749 0.39033008
vn 0 0.9206749 0.39033008
vn 0 0.9206749 0.39033008
vn 0.2547659 0.93283886 0.2547664
vn 0.2547659 0.93283886 0.2547664
vn 0.2547659 0.93283886 0.2547664
vn 0.2547659 0.93283886 0.2547664
vn -0.2547659 0.93283874 -0.2547667
vn -0.2547659 0.93283874 -0.2547667
vn -0.2547659 0.93283874 -0.2547667
vn -0.2547659 0.93283874 -0.2547667
vn 0.39033076 0.9206747 -1.4999695E-07
vn 0.39033076 0.9206747 -1.4999695E-07
vn 0.39033076 0.9206747 -1.4999695E-07
vn 0.39033076 0.9206747 -1.4999695E-07
vn -0.39033076 0.9206747 -1.4999695E-07
vn -0.39033076 0.9206747 -1.4999695E-07
vn -0.39033076 0.9206747 -1.4999695E-07
vn -0.39033076 0.9206747 -1.4999695E-07
vn 0.2547659 0.93283874 -0.2547667
vn 0.2547659 0.93283874 -0.2547667
vn 0.2547659 0.93283874 -0.2547667
vn 0.2547659 0.93283874 -0.2547667
vn -0.2547659 0.93283886 0.2547664
vn -0.2547659 0.93283886 0.2547664
vn -0.2547659 0.93283886 0.2547664
vn -0.2547659 0.93283886 0.2547664
vn 0 1.12395355E-07 1
vn 0 1.12395355E-07 1
vn 0 1.12395355E-07 1
vn 0 1.12395355E-07 1
vn -1 0 0
vn -1 0 0
vn -1 0 0
vn -1 0 0
vn 0.70710677 -1.1520232E-07 -0.70710677
vn 0.70710677 -1.1520232E-07 -0.70710677
vn 0.70710677 -1.1520232E-07 -0.70710677
vn 0.70710677 -1.1520232E-07 -0.70710677
vn -0.70710677 1.1520232E-07 0.70710677
vn -0.70710677 1.1520232E-07 0.70710677
vn -0.70710677 1.1520232E-07 0.70710677
vn -0.70710677 1.1520232E-07 0.70710677
vn 0 -1.6292068E-07 -1
vn 0 -1.6292068E-07 -1
vn 0 -1.6292068E-07 -1
vn 0 -1.6292068E-07 -1
vn 0 1.6292068E-07 1
vn 0 1.6292068E-07 1
vn 0 1.6292068E-07 1
vn 0 1.6292068E-07 1
vn 0.70710677 1.1520232E-07 0.70710677
vn 0.70710677 1.1520232E-07 0.70710677
vn 0.70710677 1.1520232E-07 0.70710677
vn 0.70710677 1.1520232E-07 0.70710677
vn -0.70710677 -1.1520232E-07 -0.70710677
vn -0.70710677 -1.1520232E-07 -0.70710677
vn -0.70710677 -1.1520232E-07 -0.70710677
vn -0.70710677 -1.1520232E-07 -0.70710677
vn -0.5233218 0.5205224 0.6746782
vn -0.5233218 0.5205224 0.6746782
vn -0.5233218 0.5205224 0.6746782
vn -0.5233218 0.5205224 0.6746782
vn 0.6686967 -0.2683672 0.6934145
vn 0.6686967 -0.2683672 0.6934145
vn 0.6686967 -0.2683672 0.6934145
vn 0.6686967 -0.2683672 0.6934145
vn -0.6768773 0.24184267 -0.6952333
vn -0.6768773 0.24184267 -0.6952333
vn -0.6768773 0.24184267 -0.6952333
vn -0.6768773 0.24184267 -0.6952333
vn 0.9251028 -0.3797167 6.18637E-08
vn 0.9251028 -0.3797167 6.18637E-08
vn 0.9251028 -0.3797167 6.18637E-08
vn 0.9251028 -0.3797167 6.18637E-08
vn -0.94303036 0.3327068 -5.420482E-08
vn -0.94303036 0.3327068 -5.420482E-08
vn -0.94303036 0.3327068 -5.420482E-08
vn -0.94303036 0.3327068 -5.420482E-08
vn 0.6686967 -0.26836744 -0.6934144
vn 0.6686967 -0.26836744 -0.6934144
vn 0.6686967 -0.26836744 -0.6934144
vn 0.6686967 -0.26836744 -0.6934144
vn -0.6768773 0.24184294 0.69523317
vn -0.6768773 0.24184294 0.69523317
vn -0.6768773 0.24184294 0.69523317
vn -0.6768773 0.24184294 0.69523317
vn 0 -2.3870865E-07 -1
vn 0 -2.3870865E-07 -1
vn 0 -2.3870865E-07 -1
vn 0 -2.3870865E-07 -1
vn 0.00484243 -0.9999882 1.6291875E-07
vn 0.00484243 -0.9999882 1.6291875E-07
vn 0.00484243 -0.9999882 1.6291875E-07
vn 0.00484243 -0.9999882 1.6291875E-07
vn 0 -1.8153507E-07 -1
vn 0 -1.8153507E-07 -1
vn 0 -1.8153507E-07 -1
vn 0 -1.8153507E-07 -1
vn 0 1.8153507E-07 1
vn 0 1.8153507E-07 1
vn 0 1.8153507E-07 1
vn 0 1.8153507E-07 1
vn 0.5751714 -0.46981642 0.6696644
vn 0.5751714 -0.46981642 0.6696644
vn 0.5751714 -0.46981642 0.6696644
vn 0.5751714 -0.46981642 0.6696644
vn -0.5233218 0.52052224 -0.6746783
vn -0.5233218 0.52052224 -0.6746783
vn -0.5233218 0.52052224 -0.6746783
vn -0.5233218 0.52052224 -0.6746783
vn 0.79598504 -0.60531634 9.861855E-08
vn 0.79598504 -0.60531634 9.861855E-08
vn 0.79598504 -0.60531634 9.861855E-08
vn 0.79598504 -0.60531634 9.861855E-08
vn -0.7045628 0.7096416 -1.15615286E-07
vn -0.7045628 0.7096416 -1.15615286E-07
vn -0.7045628 0.7096416 -1.15615286E-07
vn -0.7045628 0.7096416 -1.15615286E-07
vn 0.5751714 -0.46981668 -0.66966426
vn 0.5751714 -0.46981668 -0.66966426
vn 0.5751714 -0.46981668 -0.66966426
vn 0.5751714 -0.46981668 -0.66966426
vn -0.34664628 -0.9379959 1.5281893E-07
vn -0.34664628 -0.9379959 1.5281893E-07
vn -0.34664628 -0.9379959 1.5281893E-07
vn -0.34664628 -0.9379959 1.5281893E-07
vn -0.025444584 0.9996763 -1.6286793E-07
vn -0.025444584 0.9996763 -1.6286793E-07
vn -0.025444584 0.9996763 -1.6286793E-07
vn -0.025444584 0.9996763 -1.6286793E-07
vn 0.0053248615 -0.71418875 -0.6999328
vn 0.0053248615 -0.71418875 -0.6999328
vn 0.0053248615 -0.71418875 -0.6999328
vn 0.0053248615 -0.71418875 -0.6999328
vn -0.01670337 0.7132026 0.700759
vn -0.01670337 0.7132026 0.700759
vn -0.01670337 0.7132026 0.700759
vn -0.01670337 0.7132026 0.700759
vn -7.231537E-08 -1.0735952E-07 -1
vn -7.231537E-08 -1.0735952E-07 -1
vn -7.231537E-08 -1.0735952E-07 -1
vn -7.231537E-08 -1.0735952E-07 -1
vn 7.231537E-08 2.2259748E-07 1
vn 7.231537E-08 2.2259748E-07 1
vn 7.231537E-08 2.2259748E-07 1
vn 7.231537E-08 2.2259748E-07 1
vn 0.0053248624 -0.7141884 0.6999332
vn 0.0053248624 -0.7141884 0.6999332
vn 0.0053248624 -0.7141884 0.6999332
vn 0.0053248624 -0.7141884 0.6999332
vn -0.01670337 0.7132024 -0.7007592
vn -0.01670337 0.7132024 -0.7007592
vn -0.01670337 0.7132024 -0.7007592
vn -0.01670337 0.7132024 -0.7007592
vn -0.002702142 -0.65994096 0.7513127
vn -0.002702142 -0.65994096 0.7513127
vn -0.002702142 -0.65994096 0.7513127
vn -0.002702142 -0.65994096 0.7513127
vn -0.3466468 0.93799573 -1.528189E-07
vn -0.3466468 0.93799573 -1.528189E-07
vn -0.3466468 0.93799573 -1.528189E-07
vn -0.3466468 0.93799573 -1.528189E-07
vn -0.7958922 -0.42430952 -0.4318762
vn -0.7958922 -0.42430952 -0.4318762
vn -0.7958922 -0.42430952 -0.4318762
vn -0.7958922 -0.42430952 -0.4318762
vn -0.7052176 0.5505165 0.4467659
vn -0.7052176 0.5505165 0.4467659
vn -0.7052176 0.5505165 0.4467659
vn -0.7052176 0.5505165 0.4467659
vn -0.8445131 -0.022090416 -0.5350792
vn -0.8445131 -0.022090416 -0.5350792
vn -0.8445131 -0.022090416 -0.5350792
vn -0.8445131 -0.022090416 -0.5350792
vn -0.8445131 -0.022090288 0.5350792
vn -0.8445131 -0.022090288 0.5350792
vn -0.8445131 -0.022090288 0.5350792
vn -0.8445131 -0.022090288 0.5350792
vn -0.7958922 -0.42430952 0.43187633
vn -0.7958922 -0.42430952 0.43187633
vn -0.7958922 -0.42430952 0.43187633
vn -0.7958922 -0.42430952 0.43187633
vn -0.70521766 0.55051637 -0.4467661
vn -0.70521766 0.55051637 -0.4467661
vn -0.70521766 0.55051637 -0.4467661
vn -0.70521766 0.55051637 -0.4467661
vn 0.7493954 0.01868157 -0.6618591
vn 0.7493954 0.01868157 -0.6618591
vn 0.7493954 0.01868157 -0.6618591
vn 0.7493954 0.01868157 -0.6618591
vn 0.0034108425 0.83284473 -0.5534961
vn 0.0034108425 0.83284473 -0.5534961
vn 0.0034108425 0.83284473 -0.5534961
vn 0.0034108425 0.83284473 -0.5534961
vn -0.004094049 -0.9999916 1.629193E-07
vn -0.004094049 -0.9999916 1.629193E-07
vn -0.004094049 -0.9999916 1.629193E-07
vn -0.004094049 -0.9999916 1.629193E-07
vn 0.004094378 0.9999916 -1.629193E-07
vn 0.004094378 0.9999916 -1.629193E-07
vn 0.004094378 0.9999916 -1.629193E-07
vn 0.004094378 0.9999916 -1.629193E-07
vn -0.0027021435 -0.6599407 -0.7513128
vn -0.0027021435 -0.6599407 -0.7513128
vn -0.0027021435 -0.6599407 -0.7513128
vn -0.0027021435 -0.6599407 -0.7513128
vn 0.0034100213 0.83284515 0.5534957
vn 0.0034100213 0.83284515 0.5534957
vn 0.0034100213 0.83284515 0.5534957
vn 0.0034100213 0.83284515 0.5534957
vn 3.3151583E-08 -1.14864605E-07 -1
vn 3.3151583E-08 -1.14864605E-07 -1
vn 3.3151583E-08 -1.14864605E-07 -1
vn 3.3151583E-08 -1.14864605E-07 -1
vn -3.3151583E-08 2.1097675E-07 1
vn -3.3151583E-08 2.1097675E-07 1
vn -3.3151583E-08 2.1097675E-07 1
vn -3.3151583E-08 2.1097675E-07 1
vn 0.999668 0.025765425 1.1099513E-07
vn 0.999668 0.025765425 1.1099513E-07
vn 0.999668 0.025765425 1.1099513E-07
vn 0.999668 0.025765425 1.1099513E-07
vn 0.999668 0.025765425 1.1099513E-07
vn 0.999668 0.025765425 1.1099513E-07
vn 0.999668 0.025765425 1.1099513E-07
vn 0.999668 0.025765425 1.1099513E-07
vn 0.7493962 0.018681753 0.6618582
vn 0.7493962 0.018681753 0.6618582
vn 0.7493962 0.018681753 0.6618582
vn 0.7493962 0.018681753 0.6618582
vn 0.6879344 -0.49032867 0.5350927
vn 0.6879344 -0.49032867 0.5350927
vn 0.6879344 -0.49032867 0.5350927
vn 0.6879344 -0.49032867 0.5350927
vn 0.5136283 0.67933816 -0.52410465
vn 0.5136283 0.67933816 -0.52410465
vn 0.5136283 0.67933816 -0.52410465
vn 0.5136283 0.67933816 -0.52410465
vn 0.15343504 -0.98815876 1.6099149E-07
vn 0.15343504 -0.98815876 1.6099149E-07
vn 0.15343504 -0.98815876 1.6099149E-07
vn 0.15343504 -0.98815876 1.6099149E-07
vn 0.10637693 0.9943259 -1.6199624E-07
vn 0.10637693 0.9943259 -1.6199624E-07
vn 0.10637693 0.9943259 -1.6199624E-07
vn 0.10637693 0.9943259 -1.6199624E-07
vn 0.6879384 -0.49032602 -0.5350898
vn 0.6879384 -0.49032602 -0.5350898
vn 0.6879384 -0.49032602 -0.5350898
vn 0.6879384 -0.49032602 -0.5350898
vn 0.5136309 0.6793372 0.5241032
vn 0.5136309 0.6793372 0.5241032
vn 0.5136309 0.6793372 0.5241032
vn 0.5136309 0.6793372 0.5241032
# 336 vertex normals

vt 0.5633513 -0.51517665 0
vt 0.41068277 0.75341886 0
vt 0.57209724 -1.9275582 0
vt 0.65392995 1.2754805 0
vt 0.5123223 1.255847 0
vt 0.08527433 -2.453627 0
vt 0.29426575 1.6374685 0
vt 0.57822764 1.0328201 0
vt 0.6381009 0.5033213 0
vt 0.028879546 -2.474818 0
vt 0.39112836 -0.8358388 0
vt 0.16947128 1.6570987 0
vt 0.57822764 1.0260051 0
vt 0.7033897 0.92573595 0
vt 0.055868324 2.5626147 0
vt 0.6396385 0.24915148 0
vt 0.6045653 -0.68378776 0
vt 0.18472739 2.26284 0
vt 0.60456526 1.1409107 0
vt 0.21472718 -2.0424662 0
vt 0.67551076 1.1827275 0
vt 0.4190602 1.2760582 0
vt 0.15661167 -2.0180564 0
vt 0.5720971 2.7817206 0
vt 0.31640425 -2.6248078 0
vt 0.7734136 4.001159 0
vt 0.48231366 -0.44662768 0
vt 0.39112836 1.6374222 0
vt 0.41856256 1.2245365 0
vt 0.41856256 -0.4509552 0
vt 0.6622491 0.3675661 0
vt 0.26633376 1.4607499 0
vt 0.45725653 1.2160075 0
vt 0.5988386 1.2167425 0
vt 0.16947128 1.8270185 0
vt 0.9576225 0.49520165 0
vt 0.46760654 -0.5514066 0
vt 0.9997543 0.45094633 0
vt 0.73900706 -3.0680585 0
vt 0.09497003 2.5479221 0
vt 0.23840167 1.6570987 0
vt 0.8475799 0.0008497834 0
vt 0.4518113 -0.086616755 0
vt 0.55544525 1.4183772 0
vt 0.96941364 0.039157152 0
vt 0.53547716 0.75341886 0
vt 0.5997858 1.4757979 0
vt 0.5123223 1.3541623 0
vt 0.55346507 1.4757979 0
vt 0.0034364904 2.1995306 0
vt 0.14443237 2.2459154 0
vt 0.23840185 -0.8358388 0
vt 0.2790211 -2.3978868 0
vt 0.41794285 1.2202454 0
vt 0.48231366 0.24915148 0
vt 0.29426575 -0.83579266 0
vt 0.43861446 0.75562286 0
vt 0.35506466 -0.68618566 0
vt 0.5335527 -0.55583996 0
vt 0.6381009 1.0294127 0
vt 0.44455597 1.1593221 0
vt 0.29426575 1.8249 0
vt 0.29426575 1.7696328 0
vt 0.5633513 -0.12811446 0
vt 0.5378616 1.2618732 0
vt 0.35481134 -0.44662768 0
vt 0.6015656 0.49853763 0
vt 0.31973815 -0.68378776 0
vt 0.5997858 1.159322 0
vt 0.57275647 -0.086616755 0
vt 0.43138653 -0.086616755 0
vt 0.5346954 1.3854725 0
vt 0.6164222 1.2618732 0
vt 0.9997543 0.038164258 0
vt 0.35481143 0.24927433 0
vt 0.43861446 0.5090928 0
vt 0.8183482 -0.00014305115 0
vt 0.19591299 2.8382552 0
vt 0.8427894 0.4961946 0
vt 0.50870216 1.1593221 0
vt 0.7675433 0.038164377 0
vt 0.41856256 1.3854725 0
vt 0.4964432 1.3940015 0
vt 0.50870216 1.4506869 0
vt 0.94894934 -0.00014305115 0
vt 0.46760654 1.2555006 0
vt 0.48231366 0.24915148 0
vt 0.044296052 2.210946 0
vt 0.5365367 -0.8358388 0
vt 0.41856256 0.92573595 0
vt 0.6164222 1.3732467 0
vt 0.36319607 1.8249 0
vt 0.46760654 1.3425047 0
vt 0.9694137 0.45193917 0
vt 0.23840167 1.8270185 0
vt 0.31973815 1.1789408 0
vt 0.39112836 -0.12807238 0
vt 0.5378616 1.3732467 0
vt 0.61301494 -0.12807238 0
vt 0.13373545 -0.4509552 0
vt 0.4190602 1.3495145 0
vt 0.16947128 1.4482329 0
vt 0.51738703 -0.68378776 0
vt 0.26633376 1.6374222 0
vt 0.14153935 1.6548244 0
vt 0.57822716 1.5589116 0
vt 0.57822716 0.49991372 0
vt 0.548241 2.973943 0
vt 0.34845126 0.031048477 0
vt 0.39520547 -1.9676218 0
vt 0.39112836 0.044354796 0
vt 0.46760654 -0.8358388 0
vt 0.65392995 1.2094743 0
vt 0.6547933 1.159322 0
vt 0.55544525 1.2167425 0
vt 0.7978839 0.45193917 0
vt 0.41856265 0.24915148 0
vt 0.4820605 -0.68618566 0
vt 0.26633376 1.6548244 0
vt 0.35481134 0.24915148 0
vt 0.13373545 0.94579965 0
vt 0.19748662 0.24915148 0
vt 0.13373545 0.24915148 0
vt 0.6396385 -0.44662768 0
vt 0.51738703 1.1409107 0
vt 0.41068277 0.49853763 0
vt 0.7675433 0.45094633 0
vt 0.61301494 -0.51513445 0
vt 0.6381009 1.5555038 0
vt 0.16688682 4.0680585 0
vt 0.9197177 0.0008497834 0
vt 0.5553214 2.916553 0
vt 0.6164222 1.2691815 0
vt 0.6396385 0.24915148 0
vt 0.41856256 0.94579965 0
vt 0.19076881 2.518458 0
vt 0.16947128 -0.8358388 0
vt 0.25581822 -2.7981489 0
vt 0.53547716 0.49853763 0
vt 0.48206037 1.1593221 0
vt 0.26633376 -0.8358388 0
vt 0.36319637 -0.83579266 0
vt 0.27196628 2.6206644 0
vt 0.39112836 1.2462924 0
vt 0.23085974 -2.8723617 0
vt 0.4407921 -0.12811446 0
vt 0.50754505 0.75562286 0
vt 0.9245083 0.4961946 0
vt 0.5411146 -0.0867151 0
vt 0.44137716 1.255847 0
vt 0.35481134 0.9459227 0
vt 0.6015656 -0.086616755 0
vt 0.19748662 0.9459227 0
vt 0.4407921 -0.51517665 0
vt 0.7978839 0.039157152 0
vt 0.23255983 -0.68378776 0
vt 0.48231366 0.89251035 0
vt 0.4518113 0.49853763 0
vt 0.2552258 2.6666114 0
vt 0.23840167 1.4482329 0
vt 0.22930597 2.509274 0
vt 0.44137716 1.3541623 0
vt 0.43110138 -1.973943 0
vt 0.6381009 1.0294127 0
vt 0.23255983 1.1789408 0
vt 0.62899137 4.0515947 0
vt 0.47196084 -1.9625273 0
vt 0.22344053 -2.4111328 0
vt 0.50754505 0.5090928 0
vt 0.46302882 -0.0867151 0
vt 0.6622491 0.044354856 0
vt 0.6164222 1.1910015 0
vt 0.74921864 -2.985288 0
vt 0.4964432 1.2160075 0
vt 0.3362756 -1.9511578 0
vt 0.45725653 1.3940015 0
vt 0.55346507 1.159322 0
vt 0.39112836 -0.51513445 0
vt 0.63989174 1.1593221 0
vt 0.22581665 4.0515947 0
vt 0.5346954 1.2245365 0
vt 0.5988386 1.4183772 0
vt 0.44455597 1.4506869 0
vt 0.8096751 0.49520165 0
vt 0.7033897 -0.4509552 0
vt 0.14153935 1.4607499 0
vt 0.36319607 1.7696328 0
vt 0.34054825 -2.5585403 0
vt 0.19748662 -0.44662768 0
vt 0.36319607 1.6374685 0
vt 0.012189494 -1.9676218 0
vt 0.19748662 0.24927433 0
vt 0.41856256 -0.4509552 0
vt 0.7734136 -2.7908244 0
vt 0.6396385 0.89251035 0
vt 0.21321788 2.786799 0
vt 0.13373545 0.24482395 0
vt 0.39112836 0.3675661 0
# 198 texture coords

usemtl Material.001
s 1
f 10/55/1 11/27/2 4/124/3 1/16/4
f 14/75/5 15/151/6 12/153/7 9/192/8
f 4/124/9 11/27/10 24/103/11 17/17/12
f 2/134/13 3/195/14 8/157/15 5/87/16
f 6/122/17 7/189/18 16/66/19 13/120/20
f 1/16/21 4/124/22 3/185/23 2/109/24
f 7/189/25 6/122/26 5/197/27 8/100/28
f 15/151/29 14/75/30 13/117/31 16/135/32
f 11/121/33 10/123/34 9/192/35 12/153/36
f 5/31/37 6/67/38 13/158/39 14/198/40 9/111/41 10/43/42 1/152/43 2/171/44
f 21/84/45 20/183/46 28/176/47 29/83/48
f 15/193/49 16/66/50 21/68/51 22/58/52
f 7/90/53 8/157/54 19/125/55 20/140/56
f 3/195/57 4/14/58 17/179/59 18/19/60
f 12/153/61 15/151/62 22/96/63 23/165/64
f 8/157/65 3/195/66 18/19/67 19/125/68
f 16/66/69 7/189/70 20/156/71 21/68/72
f 11/27/73 12/30/74 23/118/75 24/103/76
f 31/56/77 30/142/78 38/190/79 39/7/80
f 17/61/81 24/80/82 32/174/83 25/33/84
f 24/80/85 23/181/86 31/5/87 32/174/88
f 20/183/89 19/82/90 27/162/91 28/176/92
f 23/181/93 22/72/94 30/48/95 31/5/96
f 19/82/97 18/29/98 26/150/99 27/162/100
f 22/72/101 21/84/102 29/83/103 30/48/104
f 18/29/105 17/61/106 25/33/107 26/150/108
f 33/88/109 40/51/110 48/136/111 41/40/112
f 27/137/113 26/52/114 34/160/115 35/102/116
f 30/142/117 29/11/118 37/28/119 38/190/120
f 26/163/121 25/167/122 33/88/123 34/50/124
f 29/26/125 28/166/126 36/191/127 37/23/128
f 25/167/129 32/3/130 40/51/131 33/88/132
f 32/141/133 31/56/134 39/7/135 40/104/136
f 28/180/137 27/130/138 35/175/139 36/110/140
f 42/15/141 41/40/142 49/196/143 50/78/144
f 40/51/145 39/18/146 47/161/147 48/136/148
f 36/186/149 35/102/150 43/12/151 44/105/152
f 39/7/153 38/190/154 46/187/155 47/63/156
f 35/102/157 34/160/158 42/41/159 43/12/160
f 38/20/161 37/23/162 45/168/163 46/53/164
f 34/160/165 33/32/166 41/119/167 42/41/168
f 37/23/169 36/191/170 44/6/171 45/168/172
f 55/76/173 54/169/174 62/147/175 63/57/176
f 45/168/177 44/6/178 52/138/179 53/25/180
f 41/40/181 48/136/182 56/159/183 49/196/184
f 48/136/185 47/161/186 55/143/187 56/159/188
f 44/6/189 43/10/190 51/145/191 52/138/192
f 47/63/193 46/187/194 54/92/195 55/62/196
f 43/12/197 42/41/198 50/95/199 51/35/200
f 46/53/201 45/168/202 53/25/203 54/188/204
f 63/42/205 62/131/206 70/45/207 71/155/208
f 51/112/209 50/89/210 58/59/211 59/37/212
f 54/169/213 53/139/214 61/46/215 62/147/216
f 50/78/217 49/196/218 57/132/219 58/108/220
f 53/25/221 52/138/222 60/173/223 61/194/224
f 49/196/225 56/159/226 64/24/227 57/132/228
f 56/126/229 55/76/230 63/57/231 64/2/232
f 52/138/233 51/145/234 59/39/235 60/173/236
f 72/81/237 71/155/238 79/116/239 80/127/240
f 59/37/241 58/59/242 66/1/243 67/154/244
f 62/131/245 61/85/246 69/74/247 70/45/248
f 58/21/249 57/113/250 65/172/251 66/114/252
f 61/101/253 60/22/254 68/86/255 69/93/256
f 57/113/257 64/4/258 72/133/259 65/172/260
f 64/77/261 63/42/262 71/155/263 72/81/264
f 60/22/265 59/144/266 67/54/267 68/86/268
f 77/177/269 76/69/270 84/34/271 85/115/272
f 68/178/273 67/154/274 75/146/275 76/97/276
f 71/155/277 70/45/278 78/94/279 79/116/280
f 67/154/281 66/1/282 74/64/283 75/146/284
f 70/45/285 69/74/286 77/38/287 78/94/288
f 66/1/289 65/128/290 73/99/291 74/64/292
f 69/8/293 68/164/294 76/129/295 77/106/296
f 65/60/297 72/13/298 80/107/299 73/9/300
f 86/65/301 85/115/302 84/34/303 83/73/304 82/91/305 81/182/306 88/44/307 87/98/308
f 73/47/309 80/49/310 88/44/311 81/182/312
f 80/127/313 79/116/314 87/79/315 88/184/316
f 76/97/317 75/146/318 83/170/319 84/71/320
f 79/116/321 78/94/322 86/148/323 87/79/324
f 75/146/325 74/64/326 82/149/327 83/170/328
f 78/94/329 77/38/330 85/36/331 86/148/332
f 74/64/333 73/99/334 81/70/335 82/149/336
#82 polygons

