# Blender 4.1.1
# www.blender.org
mtllib Sketchfab_2020_11_25_12_21_25.mtl
o Road2
v -33.556198 0.028455 20.606213
v -34.528786 0.000001 20.606213
v -34.583611 0.000001 20.606213
v -34.528786 0.028455 20.606213
v -34.583611 0.028455 20.606213
v -34.528786 0.000001 18.606213
v -34.583611 0.000001 18.606213
v -33.556198 0.028455 19.939547
v -33.556198 0.000001 18.939547
v -35.556198 0.028455 20.272879
v -35.556198 0.028455 19.272879
v -34.528786 0.028455 18.939547
v -34.528786 0.028455 19.272879
v -34.528786 0.028455 19.606213
v -34.528786 0.028455 19.939547
v -34.528786 0.028455 20.272879
v -34.583611 0.028455 18.939547
v -34.583611 0.028455 19.272879
v -34.583611 0.028455 19.606213
v -34.583611 0.028455 19.939547
v -34.583611 0.028455 20.272879
v -35.556198 0.028501 18.606213
v -35.556198 0.000001 18.606213
v -33.556198 0.000001 18.606213
v -33.556198 0.000001 20.606213
v -33.556198 0.028501 19.606213
v -33.556198 0.028501 20.272879
v -35.556198 0.000001 20.606213
v -35.556198 0.028455 20.606213
v -33.556198 0.028455 18.606213
v -33.694111 0.000001 18.606213
v -35.418285 0.000001 18.606213
v -35.418285 0.028455 18.606213
v -33.694111 0.028455 18.606213
v -35.418285 0.000001 20.606213
v -33.694111 0.000001 20.606213
v -33.694111 0.028455 20.606213
v -35.418285 0.028455 20.606213
v -35.556198 0.050001 20.606213
v -35.556198 0.050001 18.606213
v -33.694111 0.050001 18.606213
v -33.556198 0.050001 18.606213
v -33.556198 0.050001 20.606213
v -35.418285 0.050001 20.606213
v -35.418285 0.050001 18.606213
v -33.694111 0.050001 20.606213
v -35.556198 0.000001 18.939547
v -35.556198 0.000001 19.272881
v -35.556198 0.000001 19.606213
v -35.556198 0.000001 19.939547
v -35.556198 0.000001 20.272881
v -35.556198 0.028455 19.939547
v -35.556198 0.028455 19.606213
v -35.556198 0.028455 18.939547
v -33.556198 0.000001 20.272879
v -33.556198 0.000001 19.939545
v -33.556198 0.000001 19.606213
v -33.556198 0.000001 19.272879
v -33.556198 0.028455 18.939545
v -33.556198 0.028455 19.272879
v -33.694111 0.028455 18.939545
v -33.694111 0.028455 19.272879
v -33.694111 0.028455 19.606213
v -33.694111 0.028455 19.939545
v -33.694111 0.028455 20.272879
v -35.418285 0.028455 18.939547
v -35.418285 0.028455 19.272881
v -35.418285 0.028455 19.606213
v -35.418285 0.028455 19.939547
v -35.418285 0.028455 20.272881
v -35.418285 0.000001 18.939547
v -35.418285 0.000001 19.272881
v -35.418285 0.000001 19.606213
v -35.418285 0.000001 19.939547
v -35.418285 0.000001 20.272881
v -33.694111 0.000001 18.939545
v -33.694111 0.000001 19.272879
v -33.694111 0.000001 19.606213
v -33.694111 0.000001 19.939545
v -33.694111 0.000001 20.272879
v -35.556198 0.050001 20.272881
v -35.556198 0.050001 19.939547
v -35.556198 0.050001 19.606213
v -35.556198 0.050001 19.272881
v -35.556198 0.050001 18.939547
v -33.556198 0.050001 18.939545
v -33.556198 0.050001 19.272879
v -33.556198 0.050001 19.606213
v -33.556198 0.050001 19.939545
v -33.556198 0.050001 20.272879
v -33.694111 0.050001 18.939545
v -33.694111 0.050001 19.272879
v -33.694111 0.050001 19.606213
v -33.694111 0.050001 19.939545
v -33.694111 0.050001 20.272879
v -35.418285 0.050001 18.939547
v -35.418285 0.050001 19.272881
v -35.418285 0.050001 19.606213
v -35.418285 0.050001 19.939547
v -35.418285 0.050001 20.272881
vn -0.0000 1.0000 -0.0000
vn -0.0000 1.0000 0.0001
vn -0.0000 -1.0000 -0.0000
vn -0.0000 -0.0000 1.0000
vn -0.0000 -0.0000 -1.0000
vn -1.0000 -0.0000 -0.0000
vn 1.0000 -0.0000 -0.0000
vt 0.791667 0.645833
vt 0.791667 0.604167
vt 0.791667 0.500000
vt 0.833333 0.500000
vt 0.833333 0.604167
vt 0.833333 0.645833
vt 0.833333 0.750000
vt 0.791667 0.750000
vt 0.625000 0.500000
vt 0.666667 0.500000
vt 0.666667 0.604167
vt 0.666667 0.645833
vt 0.666667 0.750000
vt 0.625000 0.750000
vt 0.333333 0.500000
vt 0.375000 0.604167
vt 0.375000 0.645833
vt 0.333333 0.750000
vt 0.166667 0.750000
vt 0.125000 0.645833
vt 0.125000 0.604167
vt 0.166667 0.500000
vt 0.125000 0.750000
vt 0.125000 0.500000
vt 0.625000 0.104167
vt 0.625000 0.145833
vt 0.625000 0.250000
vt 0.375000 0.250000
vt 0.375000 0.145833
vt 0.375000 0.104167
vt 0.375000 0.000000
vt 0.625000 0.000000
vt 0.375000 0.500000
vt 0.375000 0.750000
vt 0.875000 0.645833
vt 0.875000 0.750000
vt 0.708333 0.604167
vt 0.708333 0.500000
vt 0.708333 0.645833
vt 0.750000 0.500000
vt 0.750000 0.604167
vt 0.750000 0.645833
vt 0.750000 0.750000
vt 0.708333 0.750000
vt 0.875000 0.604167
vt 0.875000 0.500000
vt 0.625000 0.416667
vt 0.625000 0.458333
vt 0.375000 0.458333
vt 0.375000 0.291667
vt 0.625000 0.291667
vt 0.625000 0.333333
vt 0.625000 0.375000
vt 0.625000 0.916667
vt 0.625000 0.958333
vt 0.625000 1.000000
vt 0.375000 1.000000
vt 0.375000 0.958333
vt 0.375000 0.791667
vt 0.625000 0.791667
vt 0.625000 0.833333
vt 0.625000 0.875000
vt 0.375000 0.208333
vt 0.625000 0.208333
vt 0.375000 0.416667
vt 0.375000 0.708333
vt 0.625000 0.708333
vt 0.375000 0.916667
vt 0.291667 0.708333
vt 0.291667 0.750000
vt 0.625000 0.833333
vt 0.708333 0.708333
vt 0.125000 0.708333
vt 0.208333 0.708333
vt 0.208333 0.750000
vt 0.375000 0.833333
vt 0.625000 0.333333
vt 0.375000 0.333333
vt 0.791667 0.708333
vt 0.875000 0.708333
vt 0.791667 0.541667
vt 0.791667 0.500000
vt 0.625000 0.541667
vt 0.625000 0.041667
vt 0.625000 0.166667
vt 0.625000 0.125000
vt 0.625000 0.083333
vt 0.625000 0.666667
vt 0.625000 0.625000
vt 0.625000 0.583333
vt 0.791667 0.666667
vt 0.791667 0.625000
vt 0.791667 0.583333
vt 0.708333 0.541667
vt 0.708333 0.583333
vt 0.708333 0.625000
vt 0.708333 0.666667
vt 0.875000 0.541667
vt 0.875000 0.583333
vt 0.875000 0.625000
vt 0.875000 0.666667
vt 0.208333 0.500000
vt 0.208333 0.541667
vt 0.125000 0.541667
vt 0.208333 0.583333
vt 0.125000 0.583333
vt 0.208333 0.625000
vt 0.125000 0.625000
vt 0.208333 0.666667
vt 0.125000 0.666667
vt 0.291667 0.500000
vt 0.375000 0.541667
vt 0.291667 0.541667
vt 0.375000 0.583333
vt 0.291667 0.583333
vt 0.375000 0.625000
vt 0.291667 0.625000
vt 0.375000 0.666667
vt 0.291667 0.666667
vt 0.375000 0.041667
vt 0.375000 0.083333
vt 0.375000 0.125000
vt 0.375000 0.166667
s 0
usemtl Road
f 15/1/1 20/2/1 52/3/1 10/4/1 21/5/1 16/6/1 27/7/1 8/8/1
f 22/9/2 54/10/2 17/11/2 12/12/2 59/13/2 30/14/2
f 47/15/3 7/16/3 6/17/3 9/18/3 55/19/3 2/20/3 3/21/3 51/22/3
f 2/20/3 55/19/3 25/23/3
f 28/24/3 51/22/3 3/21/3
f 4/25/4 5/26/4 29/27/4 28/28/4 3/29/4 2/30/4 25/31/4 1/32/4
f 7/16/3 47/15/3 23/33/3
f 6/17/3 24/34/3 9/18/3
f 22/9/5 30/14/5 24/34/5 6/17/5 7/16/5 23/33/5
f 16/6/2 4/35/2 1/36/2 27/7/2
f 18/37/1 17/11/1 54/10/1 11/38/1
f 13/39/1 18/37/1 11/38/1 53/40/1 19/41/1 14/42/1 26/43/1 60/44/1
f 20/2/1 19/41/1 53/40/1 52/3/1
f 15/1/2 8/8/2 26/43/2 14/42/2
f 13/39/1 60/44/1 59/13/1 12/12/1
f 5/45/1 21/5/1 10/4/1 29/46/1
f 11/47/6 54/48/6 22/9/6 23/33/6 47/49/6 51/50/6 28/28/6 29/27/6 10/51/6 52/52/6 53/53/6
f 8/54/7 27/55/7 1/56/7 25/57/7 55/58/7 9/59/7 24/34/7 30/14/7 59/60/7 60/61/7 26/62/7
f 11/47/6 22/9/6 23/33/6 28/28/6 29/27/6 10/51/6 52/52/6 53/53/6
f 8/54/7 27/55/7 1/56/7 25/57/7 24/34/7 30/14/7 60/61/7 26/62/7
f 47/63/6 54/64/6 22/27/6 23/28/6
f 31/65/5 34/47/5 30/9/5 24/33/5
f 55/66/7 27/67/7 1/14/7 25/34/7
f 35/68/4 38/54/4 29/56/4 28/57/4
f 80/69/3 55/66/3 25/34/3 36/70/3
f 37/71/4 1/14/4 43/14/4 46/71/4
f 65/72/6 37/44/6 46/44/6 95/72/6
f 51/73/3 75/74/3 35/75/3 28/23/3
f 25/34/4 1/14/4 37/71/4 36/76/4
f 23/28/5 22/27/5 33/77/5 32/78/5
f 30/9/5 34/47/5 41/47/5 42/9/5
f 33/77/5 22/27/5 40/27/5 45/77/5
f 66/81/7 33/82/7 45/82/7 96/81/7
f 59/83/7 30/9/7 42/9/7 86/83/7
f 10/84/6 29/32/6 39/32/6 81/84/6
f 29/56/4 38/54/4 44/54/4 39/56/4
f 22/27/6 54/64/6 85/64/6 40/27/6
f 54/64/6 11/85/6 84/85/6 85/64/6
f 11/85/6 53/86/6 83/86/6 84/85/6
f 53/86/6 52/87/6 82/87/6 83/86/6
f 52/87/6 10/84/6 81/84/6 82/87/6
f 1/14/7 27/67/7 90/67/7 43/14/7
f 27/67/7 8/88/7 89/88/7 90/67/7
f 8/88/7 26/89/7 88/89/7 89/88/7
f 26/89/7 60/90/7 87/90/7 88/89/7
f 60/90/7 59/83/7 86/83/7 87/90/7
f 38/8/7 70/79/7 100/79/7 44/8/7
f 70/79/7 69/91/7 99/91/7 100/79/7
f 69/91/7 68/92/7 98/92/7 99/91/7
f 68/92/7 67/93/7 97/93/7 98/92/7
f 67/93/7 66/81/7 96/81/7 97/93/7
f 23/24/3 32/102/3 71/103/3 47/104/3
f 47/104/3 71/103/3 72/105/3 48/106/3
f 48/106/3 72/105/3 73/107/3 49/108/3
f 49/108/3 73/107/3 74/109/3 50/110/3
f 50/110/3 74/109/3 75/74/3 51/73/3
f 34/38/6 61/94/6 91/94/6 41/38/6
f 61/94/6 62/95/6 92/95/6 91/94/6
f 62/95/6 63/96/6 93/96/6 92/95/6
f 63/96/6 64/97/6 94/97/6 93/96/6
f 64/97/6 65/72/6 95/72/6 94/97/6
f 31/111/3 24/33/3 9/112/3 76/113/3
f 76/113/3 9/112/3 58/114/3 77/115/3
f 77/115/3 58/114/3 57/116/3 78/117/3
f 78/117/3 57/116/3 56/118/3 79/119/3
f 79/119/3 56/118/3 55/66/3 80/69/3
f 24/33/7 30/9/7 59/83/7 9/112/7
f 9/112/7 59/83/7 60/90/7 58/114/7
f 58/114/7 60/90/7 26/89/7 57/116/7
f 57/116/7 26/89/7 8/88/7 56/118/7
f 56/118/7 8/88/7 27/67/7 55/66/7
f 28/31/6 29/32/6 10/84/6 51/120/6
f 51/120/6 10/84/6 52/87/6 50/121/6
f 50/121/6 52/87/6 53/86/6 49/122/6
f 49/122/6 53/86/6 11/85/6 48/123/6
f 48/123/6 11/85/6 54/64/6 47/63/6
usemtl RoadStripe
f 4/35/1 16/6/1 21/5/1 5/45/1
f 15/1/1 14/42/1 19/41/1 20/2/1
f 13/39/1 12/12/1 17/11/1 18/37/1
usemtl RoadEdge
f 100/79/1 81/80/1 39/36/1 44/8/1
f 90/67/1 95/72/1 46/44/1 43/14/1
f 42/9/1 41/38/1 91/94/1 86/83/1
f 86/83/1 91/94/1 92/95/1 87/90/1
f 87/90/1 92/95/1 93/96/1 88/89/1
f 88/89/1 93/96/1 94/97/1 89/88/1
f 89/88/1 94/97/1 95/72/1 90/67/1
f 45/82/1 40/46/1 85/98/1 96/81/1
f 96/81/1 85/98/1 84/99/1 97/93/1
f 97/93/1 84/99/1 83/100/1 98/92/1
f 98/92/1 83/100/1 82/101/1 99/91/1
f 99/91/1 82/101/1 81/80/1 100/79/1
